<?xml version="1.0" encoding="utf-8"?>
<!-- Generator: Adobe Illustrator 25.0.0, SVG Export Plug-In . SVG Version: 6.00 Build 0)  -->
<svg version="1.1" id="Layer_1" xmlns="http://www.w3.org/2000/svg" xmlns:xlink="http://www.w3.org/1999/xlink" x="0px" y="0px"
	 viewBox="0 0 288 560" style="enable-background:new 0 0 288 560;" xml:space="preserve">
<g>
	<path d="M198.38,331.06c3.41,4.62,6.56,8.89,9.7,13.14c-30.21,31.71-92.03,44.2-139.42,6.66
		c-48.49-38.41-54.97-107.23-14.02-154.51c38.77-44.76,107.02-50.05,152.91-8.23c44.78,40.8,45.76,105.84,8.3,148.28
		c-10.91-13.59-21.75-27.1-31.36-39.07c-5.59,4.68-10.73,9.37-16.25,13.53c-22.58,17.03-53.71,14.56-73.21-5.63
		c-19.1-19.77-20.55-50.73-3.41-72.63c13.56-17.33,37.28-25.11,58.17-19.07c21.67,6.26,37.64,24.82,39.91,46.96
		c0.55,5.39-0.24,10.92-0.28,16.38c-0.01,1.55-0.04,3.5,0.81,4.6c7.04,9.08,14.27,18,21.47,26.94c0.27,0.33,0.85,0.41,1.27,0.6
		c18.11-27.79,16.43-74.03-13.91-105.35c-32.31-33.35-86.9-35.63-121.34-6.47c-38.13,32.28-42.69,86.03-15.52,122.71
		c16.23,21.91,38.14,34.48,65.41,36.69C154.78,358.81,178.24,349.73,198.38,331.06z M175.07,266.96
		c0.02-22.67-17.95-41.02-40.19-41.04c-22.12-0.01-40.21,18.56-40.1,41.18c0.11,22.31,18.26,40.87,39.98,40.87
		C156.92,307.97,175.05,289.53,175.07,266.96z"/>
	<path d="M145.45,267.01c0,9-0.13,18,0.07,26.99c0.07,3.09-0.97,5.03-3.96,5.13c-4.77,0.16-9.57,0.05-14.31-0.41
		c-0.97-0.09-2.48-2.21-2.49-3.4c-0.16-18.99-0.15-37.99,0.01-56.99c0.01-1.17,1.44-2.74,2.61-3.37c1.39-0.75,3.2-0.79,4.85-0.94
		c12.16-1.09,13.25-0.08,13.25,11.99c0,7,0,14,0,21C145.47,267.01,145.46,267.01,145.45,267.01z"/>
</g>
</svg>
